# AST/ASF file generated using VICON BodyLanguage
# -----------------------------------------------
:version 1.10
:name VICON
:units
  mass 1.0
  length 0.45
  angle deg
:documentation
   .ast/.asf automatically generated from VICON data using
   VICON BodyBuilder and BodyLanguage model FoxedUp or BRILLIANT.MOD
:root
   order TX TY TZ RX RY RZ
   axis XYZ
   position 0 0 0  
   orientation 0 0 0 
:bonedata
  begin
     id 1 
     name lhipjoint
     direction 0.621036 -0.695554 0.361275 
     length 2.46325 
     axis 0 0 0  XYZ
  end
  begin
     id 2 
     name lfemur
     direction 0.34202 -0.939693 0  
     length 6.54784  
     axis 0 0 20  XYZ
    dof rx ry rz
    limits (-160.0 20.0)
           (-70.0 70.0)
           (-60.0 70.0)
  end
  begin
     id 3 
     name ltibia
     direction 0.34202 -0.939693 0   
     length 7.84737   
     axis 0 0 20   XYZ
    dof rx
    limits (-10.0 170.0)
  end
  begin
     id 4 
     name lfoot
     direction 0.0790693 -0.217241 0.97291   
     length 2.59747   
     axis -90 7.62852e-016 20   XYZ
    dof rx rz
    limits (-45.0 90.0)
           (-70.0 20.0)
  end
  begin
     id 5 
     name ltoes
     direction 1.53572e-011 -4.21898e-011 1   
     length 1.29919   
     axis -90 7.62852e-016 20   XYZ
    dof rx
    limits (-90.0 20.0)
  end
  begin
     id 6 
     name rhipjoint
     direction -0.602353 -0.708375 0.367935   
     length 2.41867  
     axis 0 0 0  XYZ 
  end
  begin
     id 7 
     name rfemur
     direction -0.34202 -0.939693 0   
     length 6.92065   
     axis 0 0 -20   XYZ
    dof rx ry rz
    limits (-160.0 20.0)
           (-70.0 70.0)
           (-70.0 60.0)
  end
  begin
     id 8 
     name rtibia
     direction -0.34202 -0.939693 0   
     length 7.88883   
     axis 0 0 -20   XYZ
    dof rx
    limits (-10.0 170.0)
 end
 begin
     id 9 
     name rfoot
     direction -0.0768692 -0.211196 0.974416   
     length 2.43714  
     axis -90 -7.62852e-016 -20   XYZ
    dof rx rz
    limits (-45.0 90.0)
           (-20.0 70.0)
  end
  begin
     id 10 
     name rtoes
     direction -1.53575e-011 -4.21933e-011 1   
     length 1.22113   
     axis -90 -7.62852e-016 -20   XYZ
    dof rx
    limits (-90.0 20.0)
  end
  begin
     id 11 
     name lowerback
     direction 0.0197937 0.98943 -0.143655   
     length 2.16931   
     axis 0 0 0   XYZ
    dof rx ry rz
    limits (-20.0 45.0)
           (-30.0 30.0)
           (-30.0 30.0)
  end
  begin
     id 12 
     name upperback
     direction -0.00183968 0.999975 0.00684288   
     length 2.17221   
     axis 0 0 0   XYZ
    dof rx ry rz
    limits (-20.0 45.0)
           (-30.0 30.0)
           (-30.0 30.0)
  end
  begin
     id 13 
     name thorax
     direction -0.00950244 0.997208 0.0740685   
     length 2.22549   
     axis 0 0 0   XYZ
    dof rx ry rz
    limits (-20.0 45.0)
           (-30.0 30.0)
           (-30.0 30.0)
  end
  begin
     id 14 
     name lowerneck
     direction 0.0218238 0.996215 0.0841425   
     length 1.77269   
     axis 0 0 0   XYZ
    dof rx ry rz
    limits (-20.0 45.0)
           (-30.0 30.0)
           (-30.0 30.0)
  end
  begin
     id 15 
     name upperneck
     direction -0.00430652 0.994214 -0.107332   
     length 1.76534   
     axis 0 0 0   XYZ
    dof rx ry rz
    limits (-20.0 45.0)
           (-30.0 30.0)
           (-30.0 30.0)
  end
  begin
     id 16
     name head
     direction -0.00328946 0.998959 -0.0454998  
     length 1.82634  
     axis 0 0 0   XYZ
    dof rx ry rz
    limits (-20.0 45.0)
           (-30.0 30.0)
           (-30.0 30.0)
  end
  begin
     id 17 
     name lclavicle
     direction 0.970962 0.239191 0.00450212  
     length 3.84872  
     axis 0 0 0   XYZ
    dof ry rz
    limits (-20.0 10.0)
           (0.0 20.0)
  end
  begin
     id 18 
     name lhumerus
     direction 1 -4.48966e-011 5.74696e-028   
     length 5.22771   
     axis 180 -30 -90   XYZ
    dof rx ry rz
    limits (-60.0 90.0)
           (-90.0 90.0)
           (-90.0 90.0)
  end
  begin
     id 19
     name lradius
     direction 1 -4.4896e-011 4.25109e-027   
     length 3.45251   
     axis 180 -30 -90   XYZ
    dof rx
    limits (-10.0 170.0)
  end
  begin
     id 20
     name lwrist
     direction 1 -4.48971e-011 1.15382e-027   
     length 1.72626   
     axis -5.52449e-016 90 90   XYZ
    dof ry
    limits (-180.0 0.0)
 end
  begin
     id 21 
     name lhand
     direction 1 -4.49034e-011 2.30765e-027   
     length 0.552119   
     axis -1.47248e-015 90 90   XYZ
    dof rx rz
    limits (-90.0 90.0)
           (-45.0 45.0)
  end
  begin
     id 22 
     name lfingers
     direction 1 -4.48951e-011 4.61529e-027   
     length 0.445133   
     axis -2.94495e-015 90 90   XYZ
    dof rx
    limits (0.0 90.0)
  end
  begin
     id 23
     name lthumb
     direction 0.707107 -6.34991e-011 0.707107   
     length 0.639124   
     axis -90 45 2.85299e-015   XYZ
    dof rx rz
    limits (-45.0 45.0)
           (-45.0 45.0)
  end
  begin
     id 24 
     name rclavicle
     direction -0.97424 0.222511 -0.0366699   
     length 3.73439  
     axis 0 0 0   XYZ 
    dof ry rz
    limits (-10.0 20.0)
           (-20.0 0.0)
  end
  begin
     id 25 
     name rhumerus
     direction -1 -4.48956e-011 -4.97258e-028  
     length 5.2398   
     axis 180 30 90   XYZ
    dof rx ry rz
    limits (-90.0 60.0)
           (-90.0 90.0)
           (-90.0 90.0)
  end
  begin
     id 26 
     name rradius
     direction -1 -4.4897e-011 -1.72611e-027   
     length 3.48042   
     axis 180 30 90   XYZ
    dof rx
    limits (-10.0 170.0)
  end
  begin
     id 27 
     name rwrist
     direction -1 -4.48976e-011 1.15382e-027   
     length 1.74021   
     axis -5.52449e-016 -90 -90   XYZ
    dof ry
    limits (-180.0 0.0)
  end
  begin
     id 28
     name rhand
     direction -1 -4.48963e-011 2.30765e-027   
     length 0.618713   
     axis -1.47248e-015 -90 -90   XYZ
    dof rx rz
    limits (-90.0 90.0)
           (-45.0 45.0)
  end
  begin
     id 29
     name rfingers
     direction -1 -4.4888e-011 4.61529e-027   
     length 0.498823   
     axis -2.94495e-015 -90 -90   XYZ
    dof rx
    limits (0.0 90.0)
  end
  begin
     id 30
     name rthumb
     direction -0.707107 -6.34968e-011 0.707107   
     length 0.716213   
     axis -90 -45 -2.85299e-015   XYZ
    dof rx rz
    limits (-45.0 45.0)
           (-45.0 45.0)
  end
:hierarchy
  begin
    root lhipjoint rhipjoint lowerback
    lhipjoint lfemur
    lfemur ltibia
    ltibia lfoot
    lfoot ltoes
    rhipjoint rfemur
    rfemur rtibia
    rtibia rfoot
    rfoot rtoes
    lowerback upperback
    upperback thorax
    thorax lowerneck lclavicle rclavicle
    lowerneck upperneck
    upperneck head
    lclavicle lhumerus
    lhumerus lradius
    lradius lwrist
    lwrist lhand lthumb
    lhand lfingers
    rclavicle rhumerus
    rhumerus rradius
    rradius rwrist
    rwrist rhand rthumb
    rhand rfingers
  end

#!OML:ASF G:\JayActor3\Patient Classification 1\Patient 1\Session 5\male.ASF
:FULLY-SPECIFIED
:DEGREES
1
root 44.5861 16.1404 -6.39538 12.3936 -83.3996 -14.8727
lowerback -0.872791 -1.01759 2.12928
upperback 3.10828 -1.44893 0.0298832
thorax 3.635 -0.672625 -1.22017
lowerneck -13.6109 -0.0993324 1.84634
upperneck 21.7678 -1.06383 0.914922
head 9.07406 -0.352934 -0.139409
rclavicle -6.68413e-015 6.26172e-015
rhumerus -34.8281 -9.98032 -86.6945
rradius 27.7617
rwrist 1.85265
rhand -18.7443 -8.04137
rfingers 7.12502
rthumb 7.55201 -37.8865
lclavicle -6.68413e-015 6.26172e-015
lhumerus -34.1325 1.57254 86.7218
lradius 27.3699
lwrist 18.7887
lhand -18.0456 13.4574
lfingers 7.12502
lthumb 8.22632 43.2773
rfemur -9.75232 3.93098 25.2366
rtibia 38.7011
rfoot -28.7513 -11.7402
rtoes 12.7653
lfemur -5.0038 6.53168 -18.7084
ltibia 27.4538
lfoot -19.6053 4.81253
ltoes -2.4254
2
root 44.5858 16.1398 -6.39398 12.5608 -83.3573 -15.0311
lowerback -0.895274 -1.00626 2.17047
upperback 3.09805 -1.43485 0.0224138
thorax 3.63655 -0.664195 -1.2507
lowerneck -13.5815 -0.10232 1.93533
upperneck 21.7553 -1.06869 0.83398
head 9.06333 -0.356883 -0.182384
rclavicle -9.18758e-015 3.08116e-015
rhumerus -34.8183 -10.0132 -86.7133
rradius 27.6722
rwrist 1.9667
rhand -18.9403 -7.80371
rfingers 7.12502
rthumb 7.36281 -37.6556
lclavicle -9.18758e-015 3.08116e-015
lhumerus -34.1378 1.53777 86.7003
lradius 27.3779
lwrist 18.7955
lhand -18.019 13.5052
lfingers 7.12502
lthumb 8.25195 43.324
rfemur -9.7733 3.9478 25.2724
rtibia 38.713
rfoot -28.7457 -11.8298
rtoes 12.6597
lfemur -5.0218 6.51561 -18.6843
ltibia 27.4495
lfoot -19.5895 4.80676
ltoes -2.47347
3
root 44.5835 16.1422 -6.39089 11.9008 -83.3378 -14.3872
lowerback -0.927947 -0.994951 2.11991
upperback 3.1124 -1.41865 0.000276866
thorax 3.67105 -0.656736 -1.24545
lowerneck -13.5826 -0.0824935 1.8912
upperneck 21.7676 -1.03889 0.867488
head 9.06832 -0.342825 -0.160106
rclavicle 1.1368e-014 -2.18663e-015
rhumerus -34.8258 -10.0136 -86.7137
rradius 27.7852
rwrist 1.86076
rhand -18.7562 -8.13051
rfingers 7.12502
rthumb 7.54044 -37.9761
lclavicle 1.1368e-014 -2.18663e-015
lhumerus -34.125 1.55018 86.6934
lradius 27.3681
lwrist 18.791
lhand -18.016 13.4272
lfingers 7.12502
lthumb 8.25487 43.246
rfemur -9.69085 3.8475 25.1782
rtibia 38.7365
rfoot -28.8177 -11.6805
rtoes 12.7744
lfemur -4.9739 6.53231 -18.7643
ltibia 27.4247
lfoot -19.5987 4.76819
ltoes -2.4608
4
root 44.5823 16.1402 -6.38884 11.8986 -83.302 -14.3985
lowerback -0.949017 -0.992134 2.13994
upperback 3.13028 -1.41641 -0.00268254
thorax 3.70111 -0.65458 -1.2603
lowerneck -13.5951 -0.0885822 1.92495
upperneck 21.7682 -1.04723 0.833654
head 9.07044 -0.347381 -0.17829
rclavicle 2.15992e-014 -4.17448e-015
rhumerus -34.7842 -9.99379 -86.7349
rradius 27.7506
rwrist 1.83389
rhand -18.8644 -7.93878
rfingers 7.12502
rthumb 7.43601 -37.7881
lclavicle 2.15992e-014 -4.17448e-015
lhumerus -34.1263 1.53366 86.692
lradius 27.4109
lwrist 18.8055
lhand -18.0296 13.425
lfingers 7.12502
lthumb 8.24177 43.2443
rfemur -9.69461 3.8445 25.1867
rtibia 38.7345
rfoot -28.7919 -11.8153
rtoes 12.5193
lfemur -4.95965 6.55034 -18.7534
ltibia 27.4198
lfoot -19.5894 4.71821
ltoes -2.49659
5
root 44.5809 16.1394 -6.38674 11.6979 -83.2714 -14.2064
lowerback -0.972258 -0.984369 2.13616
upperback 3.13956 -1.40635 -0.0128106
thorax 3.7241 -0.649176 -1.26882
lowerneck -13.5997 -0.0876791 1.93774
upperneck 21.775 -1.04584 0.819631
head 9.07353 -0.347064 -0.185079
rclavicle 9.42364e-015 -9.44227e-015
rhumerus -34.7715 -9.98187 -86.7515
rradius 27.7943
rwrist 1.73068
rhand -18.8275 -8.05055
rfingers 7.12502
rthumb 7.47165 -37.8986
lclavicle 9.42364e-015 -9.44227e-015
lhumerus -34.1243 1.52394 86.6859
lradius 27.4233
lwrist 18.8106
lhand -18.024 13.3863
lfingers 7.12502
lthumb 8.24721 43.2054
rfemur -9.68592 3.82104 25.1658
rtibia 38.7401
rfoot -28.7817 -11.8904
rtoes 12.3404
lfemur -4.93864 6.56348 -18.7713
ltibia 27.4006
lfoot -19.5816 4.67686
ltoes -2.50839
6
root 44.5795 16.1383 -6.38477 11.4821 -83.2419 -13.9991
lowerback -0.992694 -0.977487 2.1276
upperback 3.14791 -1.39728 -0.0215492
thorax 3.74463 -0.644468 -1.2732
lowerneck -13.6072 -0.0872136 1.94471
upperneck 21.7834 -1.04431 0.807892
head 9.0777 -0.34689 -0.190109
rclavicle -2.54258e-014 4.67144e-015
rhumerus -34.7605 -9.96116 -86.7677
rradius 27.8651
rwrist 1.58253
rhand -18.7374 -8.26842
rfingers 7.12502
rthumb 7.55859 -38.1134
lclavicle -2.54258e-014 4.67144e-015
lhumerus -34.1227 1.52089 86.6814
lradius 27.4308
lwrist 18.8132
lhand -18.0213 13.3319
lfingers 7.12502
lthumb 8.24978 43.1509
rfemur -9.67093 3.80168 25.1432
rtibia 38.72
rfoot -28.7513 -11.9841
rtoes 12.1396
lfemur -4.93404 6.57771 -18.791
ltibia 27.4132
lfoot -19.5887 4.63438
ltoes -2.51722
